<!-- Generated by IcoMoon.io -->
<svg version="1.1" xmlns="http://www.w3.org/2000/svg" width="105" height="32" viewBox="0 0 105 32">
<title>amazon-logo</title>
<path fill="#f90" d="M64.653 24.561c-6.055 4.468-14.833 6.845-22.392 6.845-10.595 0-20.134-3.916-27.353-10.434-0.567-0.513-0.061-1.211 0.62-0.815 7.788 4.533 17.421 7.262 27.37 7.262 6.711 0 14.087-1.393 20.876-4.271 1.024-0.435 1.883 0.674 0.88 1.415z"></path>
<path fill="#f90" d="M67.172 21.684c-0.775-0.991-5.119-0.469-7.071-0.236-0.59 0.071-0.683-0.445-0.15-0.819 3.466-2.435 9.146-1.731 9.806-0.917 0.664 0.823-0.174 6.516-3.423 9.233-0.5 0.417-0.976 0.195-0.753-0.356 0.73-1.827 2.366-5.912 1.591-6.904z"></path>
<path fill="#221f1f" d="M60.238 3.431v-2.366c0.001-0.361 0.272-0.6 0.6-0.599l10.602-0.001c0.338 0 0.611 0.247 0.611 0.597v2.029c-0.004 0.341-0.29 0.785-0.799 1.49l-5.491 7.841c2.038-0.047 4.195 0.259 6.047 1.3 0.417 0.233 0.529 0.581 0.562 0.922v2.525c0 0.346-0.38 0.751-0.781 0.541-3.263-1.71-7.593-1.897-11.201 0.020-0.369 0.197-0.754-0.201-0.754-0.548v-2.399c0-0.385 0.006-1.042 0.394-1.626l6.363-9.128-5.541-0.001c-0.338 0-0.611-0.242-0.612-0.595z"></path>
<path fill="#221f1f" d="M81.179 0.161c4.787 0 7.375 4.11 7.375 9.336 0 5.050-2.858 9.057-7.375 9.057-4.696 0-7.257-4.111-7.257-9.232 0-5.155 2.59-9.161 7.257-9.161zM81.208 3.54c-2.379 0-2.529 3.239-2.529 5.26 0 2.020-0.029 6.338 2.499 6.338 2.499 0 2.619-3.483 2.619-5.607 0-1.394-0.060-3.066-0.482-4.39-0.361-1.149-1.084-1.601-2.108-1.601z"></path>
<path fill="#221f1f" d="M51.787 10.299c0 1.257 0.031 2.305-0.603 3.422-0.513 0.907-1.328 1.467-2.232 1.467-1.238 0-1.961-0.943-1.961-2.339 0-2.748 2.465-3.247 4.797-3.247v0.698zM55.040 18.164c-0.212 0.191-0.603 0.197-0.762 0.074-1.101-0.852-1.849-2.148-1.849-2.148-1.771 1.804-3.025 2.346-5.317 2.346-2.716 0-4.828-1.678-4.828-5.028 0-2.618 1.418-4.4 3.441-5.271 1.749-0.77 4.194-0.908 6.064-1.118 0 0 0.157-2.021-0.392-2.758-0.425-0.571-1.146-0.838-1.81-0.838-1.196-0.005-2.352 0.646-2.582 1.898-0.065 0.357-0.329 0.659-0.608 0.628l-3.088-0.336c-0.237-0.027-0.557-0.27-0.482-0.674 0.719-3.792 4.143-4.938 7.214-4.938 1.568 0 3.62 0.418 4.858 1.607 1.568 1.467 1.418 3.42 1.418 5.551v5.024c0 1.512 0.627 2.175 1.217 2.989 0.205 0.295 0.252 0.642-0.010 0.857-0.66 0.552-2.482 2.136-2.482 2.136z"></path>
<path fill="#221f1f" d="M9.504 10.299c0 1.257 0.031 2.305-0.603 3.422-0.513 0.907-1.328 1.467-2.232 1.467-1.238 0-1.961-0.943-1.961-2.339 0-2.748 2.465-3.247 4.797-3.247v0.698zM12.757 18.164c-0.214 0.191-0.603 0.197-0.762 0.074-1.103-0.852-1.849-2.148-1.849-2.148-1.771 1.804-3.025 2.346-5.317 2.346-2.716 0-4.829-1.678-4.829-5.028 0-2.618 1.418-4.4 3.439-5.271 1.75-0.77 4.195-0.908 6.065-1.118 0 0 0.156-2.021-0.392-2.758-0.425-0.571-1.146-0.838-1.81-0.838-1.197-0.005-2.353 0.646-2.582 1.898-0.066 0.357-0.329 0.659-0.608 0.628l-3.088-0.336c-0.238-0.027-0.558-0.27-0.482-0.674 0.719-3.792 4.143-4.938 7.213-4.938 1.568 0 3.62 0.418 4.858 1.607 1.568 1.467 1.418 3.42 1.418 5.551v5.024c0 1.512 0.627 2.175 1.216 2.989 0.206 0.295 0.253 0.642-0.010 0.857-0.659 0.552-2.481 2.136-2.481 2.136z"></path>
<path fill="#221f1f" d="M22.189 8.835c0-1.917-0.090-4.564 2.227-4.564 2.288 0 1.987 2.717 1.987 4.564l0.004 8.776c0 0.317 0.256 0.575 0.579 0.594h3.222c0.343 0 0.622-0.265 0.622-0.595v-8.774c0-0.941-0.029-2.334 0.301-3.17s1.144-1.36 1.927-1.36c0.932 0 1.656 0.314 1.897 1.428 0.15 0.663 0.090 2.404 0.090 3.101l0.001 8.776c0 0.317 0.254 0.575 0.579 0.594h3.221c0.345 0 0.622-0.265 0.622-0.595l0.004-10.446c0-1.778 0.21-3.798-0.814-5.191-0.903-1.254-2.377-1.811-3.733-1.811-1.897 0-3.672 0.976-4.456 3.066-0.903-2.090-2.167-3.066-4.185-3.066-1.987 0-3.462 0.976-4.245 3.066h-0.061v-2.114c0-0.333-0.27-0.603-0.603-0.603h-3.010c-0.333 0-0.602 0.27-0.602 0.603v16.49c0 0.332 0.268 0.602 0.602 0.602h3.221c0.333 0 0.603-0.27 0.603-0.602v-8.768z"></path>
<path fill="#221f1f" d="M95.392 17.602c0 0.333-0.27 0.603-0.603 0.603h-3.221c-0.332 0-0.602-0.27-0.602-0.603v-16.49c0-0.332 0.27-0.603 0.602-0.603h2.978c0.35 0 0.603 0.281 0.603 0.472v2.524h0.062c0.903-2.264 2.167-3.344 4.395-3.344 1.447 0 2.861 0.523 3.764 1.951 0.845 1.323 0.845 3.553 0.845 5.155v10.416c-0.037 0.294-0.301 0.521-0.62 0.521h-3.234c-0.299-0.019-0.539-0.239-0.573-0.521l0.005-10.003c0-3.347-1.282-3.445-2.021-3.445-0.861 0-1.555 0.673-1.857 1.3-0.45 1.011-0.523 2.044-0.523 3.16v8.906z"></path>
</svg>
