<!-- Generated by IcoMoon.io -->
<svg version="1.1" xmlns="http://www.w3.org/2000/svg" width="373" height="32" viewBox="0 0 373 32">
<title>journal</title>
<path fill="#fff" d="M371.334 27.361c-1.009 0-2.018 1.008-2.018 2.016 0 1.26 1.009 2.016 2.018 2.016s2.018-1.008 2.018-2.016c0-1.26-0.756-2.016-2.018-2.016zM299.442 31.392h9.082v-0.756l-1.009-0.252c-1.009-0.252-1.261-0.756-1.261-2.016v-12.095h2.017c1.262 0 2.018 0.252 2.018 3.024l0.253 5.795c0.252 5.039 1.765 6.551 4.288 6.551s3.279-1.764 3.279-4.284v-1.008h-1.009v0.756c0 1.764-0.252 2.772-0.756 2.772s-0.505-0.504-0.756-2.52l-0.253-4.031c-0.252-5.291-1.009-7.055-5.045-7.811 3.785-1.008 6.054-3.78 6.054-7.559 0-5.039-4.036-7.559-7.82-7.559h-15.388v0.756l0.757 0.252c1.514 0.252 1.765 1.26 1.765 4.787v18.142c0 4.031-1.009 6.047-3.783 6.047-2.271 0-3.532-1.008-3.532-5.543v-21.417c0-1.26 0.505-1.512 1.514-1.764l1.261-0.252v-0.756h-9.333v0.756l1.009 0.252c1.009 0.252 1.262 0.504 1.262 1.764v21.165c0 4.787 2.774 7.307 6.811 7.307 4.288 0 6.306-2.52 6.306-7.559v-19.654c0-2.52 0.505-3.276 2.523-3.276 1.514 0 2.27 0.504 2.27 2.016v25.197c0 1.26-0.505 1.764-1.261 2.016l-1.009 0.252v0.756h-0.253v-0.252zM360.236 3.424c0-1.26 0.505-1.764 1.261-1.764l1.261-0.252v-0.756h-9.332v0.756l1.008 0.252c1.009 0.252 1.262 0.504 1.262 1.764v25.449c0 1.26-0.505 1.764-1.766 1.764-1.513 0-1.765-0.504-2.522-3.276l-5.803-27.213h-1.765l-5.55 26.205c-0.505 3.024-1.009 3.528-2.27 4.031l-0.757 0.252v0.756h6.307v-0.756l-1.009-0.252c-1.262-0.252-1.766-1.008-1.009-4.284l3.279-16.63 3.532 17.89c0.505 2.52 0.505 3.024-1.514 3.528l-1.009 0.252v0.756h23.964v-10.331h-0.756c-0.505 4.787-1.514 9.071-5.297 9.071h-1.766l0.253-27.213zM345.857 23.077v-1.26h-6.054l-0.252 1.26h6.306zM320.631 3.928v21.669c0 3.276 0 4.787-1.514 5.039l-0.756 0.252v0.756h6.559v-0.756c-2.775-0.504-2.775-1.512-2.775-4.788v-20.661l-1.009-1.008 11.1 27.213h1.765v-25.197c0-3.78 0-4.535 1.765-5.039l0.505-0.252v-0.756h-6.811v0.756l0.757 0.252c2.27 0.504 2.27 1.26 2.27 4.787v15.622l0.505-0.252-8.324-21.417h-6.306v0.756l0.505 0.252c0.505 0.252 1.009 1.008 1.765 2.772zM306.254 1.156h1.765c1.765 0 3.532 1.26 3.532 7.055 0 6.047-1.262 6.551-3.785 6.551h-1.513v-13.606zM275.983 15.518c0 12.85-1.009 14.866-3.532 14.866-2.27 0-3.279-1.764-3.279-14.614 0-12.347 1.009-14.362 3.279-14.362 2.523-0.252 3.532 1.764 3.532 14.11zM281.028 15.77c0-8.567-2.774-15.622-8.324-15.622s-8.324 7.055-8.324 15.622c0 8.567 2.774 15.622 8.324 15.622 5.55 0.252 8.324-6.803 8.324-15.622zM261.604 3.424c0-1.26 0.253-1.764 1.262-1.764l1.009-0.252v-0.756h-9.333v0.756l1.009 0.252c1.009 0.252 1.514 0.504 1.514 1.764v21.921c0 3.024-0.253 5.543-2.523 5.543-1.514 0-2.523-1.008-2.523-2.016 0.252-1.512 2.523-1.26 2.774-3.528 0.253-1.512-1.009-2.268-1.765-2.52-1.514-0.252-3.027 1.008-3.027 3.276 0 3.024 2.018 5.795 5.297 5.795 3.785 0 6.559-2.52 6.559-7.307l-0.253-21.165zM110.506 3.424c0-1.26 0.505-1.764 1.261-1.764l1.262-0.252v-0.756h-9.333v0.756l1.009 0.252c1.009 0.252 1.261 0.504 1.261 1.764v25.449c0 1.26-0.505 1.764-1.766 1.764-1.513 0-1.766-0.504-2.523-3.276l-5.802-27.213h-1.766l-5.55 26.205c-0.505 3.024-1.009 3.528-2.27 4.031l-0.757 0.252v0.756h6.306v-0.756l-1.009-0.252c-1.261-0.252-1.766-1.008-1.009-4.284l3.279-16.63 3.532 17.89c0.504 2.52 0.505 3.024-1.513 3.528l-1.009 0.252v0.756h24.216v-10.331h-0.756c-0.505 4.787-1.514 9.071-5.298 9.071h-1.765v-27.213zM236.38 1.156h1.009c2.774 0 3.783 4.535 4.036 9.071h0.756v-10.331h-16.397v10.331h0.757c0.252-4.787 1.261-9.071 4.036-9.071h1.009v26.961c0 1.26-0.505 1.764-1.262 2.016l-1.261 0.252v0.756h9.585v-0.756l-1.514-0.252c-0.756-0.252-1.261-0.504-1.261-1.764l0.505-27.213zM215.695 15.77h1.514c2.018 0 2.523 0.756 3.027 5.795h0.756v-12.347h-0.756c-0.505 3.78-1.009 5.543-3.027 5.543h-1.514v-13.354h3.027c3.532 0 4.288 4.283 4.793 9.071h0.756v-10.331h-15.387v0.756l1.009 0.252c1.009 0.252 1.261 1.008 1.261 2.016v25.197c0 1.26-0.505 1.764-1.261 2.016l-1.009 0.252v0.756h15.891v-10.331h-0.505c-0.505 4.787-1.009 9.071-5.044 9.071h-3.027l-0.505-14.362zM198.794 15.77h1.514c2.018 0 2.523 0.756 3.027 5.795h0.757v-12.347h-0.757c-0.505 3.78-1.009 5.543-3.027 5.543h-1.514v-13.354h3.027c3.532 0 4.288 4.535 4.793 9.071h0.757v-10.331h-15.892v0.756l1.514 0.252c1.009 0.252 1.262 1.008 1.262 2.016v25.197c0 1.26-0.505 1.764-1.262 2.016l-1.009 0.252v0.756h15.892v-10.331h-0.757c-0.505 4.787-1.009 9.071-5.044 9.071h-3.027v-14.11h-0.253v-0.252zM180.127 1.156h1.262c1.765 0 3.532 1.26 3.532 7.055s-1.262 6.551-3.785 6.551h-1.009v-13.606zM173.316 31.392h9.082v-0.756l-1.009-0.252c-1.009-0.252-1.262-0.756-1.262-2.016v-12.095h1.766c1.261 0 2.018 0.504 2.018 3.024l0.252 5.795c0.253 5.039 1.765 6.551 4.288 6.551s3.28-1.764 3.28-4.284v-1.008h-1.009v0.756c0 1.764-0.253 2.772-0.757 2.772s-0.505-0.504-0.756-2.52l-0.253-4.031c-0.252-5.543-1.009-7.055-5.044-7.811 3.783-1.008 6.053-3.78 6.053-7.559 0-5.039-4.036-7.559-7.82-7.559h-8.576v0.756l1.009 0.252c1.009 0.252 1.261 0.504 1.261 1.764v25.197c0 1.26-0.505 1.764-1.261 2.016l-1.009 0.252v1.008h-0.253v-0.252zM166.506 1.156h1.009c2.774 0 3.783 4.535 4.036 9.071h0.756v-10.331h-16.396v10.331h0.756c0.253-4.787 1.261-9.071 4.036-9.071h1.009v26.961c0 1.26-0.505 1.764-1.262 2.016l-1.261 0.252v0.756h9.585v-0.756l-1.261-0.252c-1.261-0.252-1.261-1.26-1.261-2.016v-26.961h0.252zM156.163 23.329c0-9.071-10.090-11.591-10.090-18.646 0-1.512 0.505-3.527 2.774-3.527 3.279 0 4.541 4.283 5.045 9.323h0.756v-10.331h-0.505c-0.252 1.008-0.505 1.512-1.261 1.512-1.009 0-1.514-1.512-4.036-1.512-3.783 0-6.306 3.276-6.306 7.307 0 7.559 10.090 10.835 10.090 18.142 0 3.276-1.514 5.039-3.532 5.039-3.026 0-5.044-3.527-5.549-9.323h-0.757v10.331h0.505c0.505-1.512 1.009-1.512 1.514-1.512 0.757 0 1.766 1.764 4.288 1.764 3.532-0.504 7.063-3.779 7.063-8.567zM126.398 3.424c0-1.26 0.505-1.764 1.261-1.764l1.262-0.252v-0.756h-9.333v0.756l1.008 0.252c1.009 0.252 1.262 0.504 1.262 1.764v25.197c0 1.26-0.505 1.764-1.262 2.016l-1.008 0.252v0.756h14.63v-10.331h-0.757c-0.505 4.787-1.514 9.071-5.297 9.071h-1.765c0-0.252 0-26.961 0-26.961zM96.38 23.077v-1.26h-6.054l-0.252 1.26h6.306zM70.145 31.392h2.018l4.288-22.425h-0.505l4.54 22.425h1.514l5.55-26.205c0.504-2.772 1.009-3.779 2.018-4.031l0.757-0.252v-0.756h-6.306v0.756l1.009 0.252c1.261 0.252 1.766 1.008 1.009 4.283l-3.532 17.638h0.505l-3.532-18.646c-0.252-1.764-0.505-3.276 1.009-3.528l1.009-0.252v-0.756h-8.577v0.756l0.505 0.252c1.009 0.252 1.009 0.756 1.513 2.52l1.514 6.803-0.252-4.031-3.027 16.378h0.505l-3.532-18.142c-0.505-1.764-0.505-3.276 1.009-3.528l0.757-0.252v-0.756h-8.829v0.756l0.757 0.252c0.757 0.252 1.261 0.504 1.766 3.024l4.541 27.465zM45.929 15.77h1.514c2.018 0 2.523 0.756 3.027 5.795h0.757v-12.347h-0.757c-0.504 3.78-1.009 5.543-3.027 5.543h-1.514v-13.354h3.027c3.532 0 4.288 4.535 4.793 9.071h0.757v-10.331h-15.387v0.756l1.009 0.252c1.009 0.252 1.261 1.008 1.261 2.016v25.197c0 1.26-0.504 1.764-1.261 2.016l-1.009 0.252v0.756h16.144v-10.331h-0.757c-0.505 4.787-1.009 9.071-5.045 9.071h-3.027v-14.11h-0.505v-0.252zM17.425 31.392h9.081v-0.756l-1.009-0.252c-0.757-0.252-1.261-0.756-1.261-2.016v-12.347h6.811v12.347c0 1.26-0.505 1.764-1.261 2.016l-1.009 0.252v0.756h9.081v-0.756l-1.009-0.252c-1.009-0.252-1.261-0.756-1.261-2.016v-25.197c0-1.26 0.505-1.764 1.261-1.764l1.009-0.252v-0.756h-9.081v0.756l1.261 0.252c0.757 0.252 1.261 0.504 1.261 1.764v11.59h-6.811v-11.59c0-1.26 0.505-1.512 1.261-1.764l1.009-0.252v-0.756h-9.333v0.756l1.009 0.252c1.009 0.252 1.261 0.504 1.261 1.764v25.197c0 1.26-0.505 1.764-1.261 2.016l-1.009 0.252v0.756zM10.614 1.156h1.009c2.775 0 3.784 4.535 4.036 9.071h0.757v-10.331h-16.396v10.331h1.009c0.252-4.787 1.261-9.071 4.036-9.071h1.009v26.961c0 1.26-0.505 1.764-1.261 2.016l-1.261 0.252v0.756h9.586v-0.756l-1.514-0.252c-0.757-0.252-1.261-0.504-1.261-1.764l0.252-27.213z"></path>
</svg>
