<!-- Generated by IcoMoon.io -->
<svg version="1.1" xmlns="http://www.w3.org/2000/svg" width="32" height="32" viewBox="0 0 32 32">
<title>linkedin</title>
<path fill="#fff" d="M3.767 8.311h-0.045c-2.258 0-3.722-1.511-3.722-3.426 0-1.952 1.507-3.431 3.81-3.431 2.301 0 3.716 1.475 3.761 3.426 0 1.915-1.46 3.431-3.804 3.431zM32 30.545h-7.072v-10.227c0-2.677-1.106-4.504-3.539-4.504-1.861 0-2.895 1.233-3.377 2.422-0.159 0.376-0.156 0.881-0.153 1.402v0c0 0.071 0.001 0.142 0.001 0.213v10.694h-7.007c0 0 0.090-18.116 0-19.762h7.007v3.101c0.414-1.356 2.653-3.291 6.226-3.291 4.433 0 7.915 2.843 7.915 8.964v10.988zM7.044 10.783h-6.237v19.762h6.237v-19.762z"></path>
</svg>
