<!-- Generated by IcoMoon.io -->
<svg version="1.1" xmlns="http://www.w3.org/2000/svg" width="32" height="32" viewBox="0 0 32 32">
<title>plug</title>
<path fill="none" stroke="#fefefe" stroke-linejoin="miter" stroke-linecap="butt" stroke-miterlimit="4" stroke-width="0.6076" d="M10.537 0.39h10.927c5.604 0 10.146 4.543 10.146 10.146v10.927c0 5.603-4.543 10.146-10.146 10.146h-10.927c-5.604 0-10.146-4.543-10.146-10.146v-10.927c0-5.604 4.543-10.146 10.146-10.146z"></path>
<path fill="none" stroke="#fefefe" stroke-linejoin="miter" stroke-linecap="butt" stroke-miterlimit="4" stroke-width="0.6076" d="M18.721 10.267c-0.804-0.475-1.74-0.748-2.741-0.748-0.994 0-1.925 0.269-2.725 0.738"></path>
<path fill="none" stroke="#fefefe" stroke-linejoin="miter" stroke-linecap="butt" stroke-miterlimit="4" stroke-width="0.6076" d="M20.725 8.408c-1.333-0.977-2.978-1.553-4.756-1.553-1.762 0-3.392 0.565-4.718 1.525"></path>
<path fill="none" stroke="#fefefe" stroke-linejoin="miter" stroke-linecap="butt" stroke-miterlimit="4" stroke-width="0.6076" d="M18.035 24.754h-4.071c-2.115 0-3.829-1.714-3.829-3.829v-4.071c0-2.115 1.714-3.829 3.829-3.829h4.071c2.115 0 3.829 1.715 3.829 3.829v4.071c0 2.115-1.714 3.829-3.829 3.829z"></path>
<path fill="none" stroke="#fefefe" stroke-linejoin="miter" stroke-linecap="butt" stroke-miterlimit="4" stroke-width="0.6076" d="M14.287 18.89c0-0.946 0.767-1.714 1.713-1.714s1.713 0.767 1.713 1.714c0 0.946-0.767 1.714-1.713 1.714s-1.713-0.767-1.713-1.714z"></path>
</svg>
