<!-- Generated by IcoMoon.io -->
<svg version="1.1" xmlns="http://www.w3.org/2000/svg" width="32" height="32" viewBox="0 0 32 32">
<title>protection</title>
<path fill="none" stroke="#2468ff" stroke-linejoin="round" stroke-linecap="round" stroke-miterlimit="4" stroke-width="0.8101" d="M12.479 15.473l2.328 2.322 4.815-4.803"></path>
<path fill="none" stroke="#2468ff" stroke-linejoin="round" stroke-linecap="round" stroke-miterlimit="4" stroke-width="0.8101" d="M16.541 26.712c1.902-1.050 8.687-5.634 8.953-17.719 0.009-0.437-0.265-0.844-0.679-0.987-2.573-0.887-5.566-1.4-8.767-1.4h0.003c-3.2 0-6.193 0.513-8.767 1.4-0.415 0.143-0.689 0.55-0.679 0.987 0.267 12.086 7.052 16.67 8.953 17.719 0.15 0.084 0.319 0.128 0.491 0.128s0.341-0.044 0.491-0.128l-0 0z"></path>
<path fill="none" stroke="#2468ff" stroke-linejoin="miter" stroke-linecap="butt" stroke-miterlimit="4" stroke-width="0.8101" d="M21.463 0.39h-10.927c-5.604 0-10.146 4.543-10.146 10.146v10.927c0 5.604 4.543 10.146 10.146 10.146h10.927c5.604 0 10.146-4.543 10.146-10.146v-10.927c0-5.604-4.543-10.146-10.146-10.146z"></path>
</svg>
