<!-- Generated by IcoMoon.io -->
<svg version="1.1" xmlns="http://www.w3.org/2000/svg" width="32" height="32" viewBox="0 0 32 32">
<title>setting</title>
<path fill="none" stroke="#2468ff" stroke-linejoin="round" stroke-linecap="round" stroke-miterlimit="4" stroke-width="0.8101" d="M23.668 19.063c0-1.86-1.506-3.369-3.363-3.369h-3.671l-0.509-6.595c-0.024-0.296-0.162-0.572-0.385-0.769s-0.512-0.301-0.81-0.289-0.578 0.137-0.785 0.351c-0.207 0.214-0.323 0.499-0.324 0.796l0.010 13.244-2.341-2.050c-0.44-0.386-1.003-0.604-1.588-0.615s-1.156 0.184-1.611 0.553c0 0 4.103 5.015 7.038 6.406"></path>
<path fill="none" stroke="#2468ff" stroke-linejoin="round" stroke-linecap="round" stroke-miterlimit="4" stroke-width="0.8101" d="M11.106 11.369v-3.597c-0-0.586 0.232-1.149 0.646-1.564s0.976-0.648 1.563-0.649h3.314c0.29 0 0.578 0.058 0.846 0.169s0.512 0.274 0.717 0.48c0.205 0.205 0.368 0.449 0.479 0.718s0.168 0.556 0.168 0.846v3.597"></path>
<path fill="none" stroke="#2468ff" stroke-linejoin="miter" stroke-linecap="butt" stroke-miterlimit="4" stroke-width="0.8101" d="M21.463 0.39h-10.927c-5.604 0-10.146 4.543-10.146 10.146v10.927c0 5.604 4.543 10.146 10.146 10.146h10.927c5.604 0 10.146-4.543 10.146-10.146v-10.927c0-5.604-4.543-10.146-10.146-10.146z"></path>
</svg>
