<!-- Generated by IcoMoon.io -->
<svg version="1.1" xmlns="http://www.w3.org/2000/svg" width="32" height="32" viewBox="0 0 32 32">
<title>shipping</title>
<path fill="none" stroke="#231f20" stroke-linejoin="round" stroke-linecap="round" stroke-miterlimit="4" stroke-width="1.1111" d="M1.228 22.308v-21.538h22.274c0.625 0 1.176 0.589 1.352 1.446l1.797 10.794 3.326 1.734c0.447 0.354 0.725 1.028 0.725 1.758v5.806"></path>
<path fill="none" stroke="#231f20" stroke-linejoin="round" stroke-linecap="round" stroke-miterlimit="4" stroke-width="1.1111" d="M15.965 22.308v-17.435"></path>
<path fill="none" stroke="#231f20" stroke-linejoin="round" stroke-linecap="round" stroke-miterlimit="4" stroke-width="1.1111" d="M27.594 26.41h3.809"></path>
<path fill="none" stroke="#231f20" stroke-linejoin="round" stroke-linecap="round" stroke-miterlimit="4" stroke-width="1.1111" d="M11.352 26.41h9.226"></path>
<path fill="none" stroke="#231f20" stroke-linejoin="round" stroke-linecap="round" stroke-miterlimit="4" stroke-width="1.1111" d="M0.526 26.41h3.808"></path>
<path fill="none" stroke="#231f20" stroke-linejoin="round" stroke-linecap="round" stroke-miterlimit="4" stroke-width="1.1111" d="M11.353 26.41c0 2.832-1.571 5.128-3.508 5.128s-3.509-2.295-3.509-5.128c0-2.832 1.572-5.128 3.509-5.128s3.508 2.295 3.508 5.128z"></path>
<path d="M9.16 26.41c0 1.061-0.589 1.923-1.316 1.923s-1.316-0.862-1.316-1.923c0-1.061 0.589-1.923 1.316-1.923s1.316 0.861 1.316 1.923z"></path>
<path fill="none" stroke="#231f20" stroke-linejoin="round" stroke-linecap="round" stroke-miterlimit="4" stroke-width="1.1111" d="M27.595 26.41c0 2.832-1.571 5.128-3.508 5.128-1.938 0-3.509-2.295-3.509-5.128s1.572-5.128 3.509-5.128c1.937 0 3.508 2.295 3.508 5.128z"></path>
<path d="M25.402 26.41c0 1.061-0.59 1.923-1.316 1.923s-1.316-0.862-1.316-1.923c0-1.061 0.589-1.923 1.316-1.923s1.316 0.861 1.316 1.923z"></path>
<path fill="none" stroke="#231f20" stroke-linejoin="round" stroke-linecap="round" stroke-miterlimit="4" stroke-width="1.1111" d="M26.651 13.008h-6.812v-8.138h5.457"></path>
</svg>
