<!-- Generated by IcoMoon.io -->
<svg version="1.1" xmlns="http://www.w3.org/2000/svg" width="32" height="32" viewBox="0 0 32 32">
<title>support</title>
<path fill="none" stroke-linejoin="round" stroke-linecap="round" stroke-miterlimit="4" stroke-width="1.1111" stroke="#000" d="M20.6 5.162c0 2.56-2.075 4.635-4.635 4.635s-4.636-2.075-4.636-4.635c0-2.56 2.076-4.635 4.636-4.635s4.635 2.075 4.635 4.635z"></path>
<path fill="none" stroke-linejoin="round" stroke-linecap="round" stroke-miterlimit="4" stroke-width="1.1111" stroke="#000" d="M0.527 31.177h30.877"></path>
<path fill="none" stroke-linejoin="round" stroke-linecap="round" stroke-miterlimit="4" stroke-width="1.1111" stroke="#000" d="M23.436 28.37v-5.836c0-0.853-0.692-1.544-1.544-1.544h-11.854c-0.853 0-1.543 0.691-1.543 1.544v5.836"></path>
<path fill="none" stroke-linejoin="round" stroke-linecap="round" stroke-miterlimit="4" stroke-width="1.1111" stroke="#000" d="M27.664 28.338c0.851-0.983 1.085-2.357 0.607-3.566l-2.707-6.849c-0.932-2.356-3.208-3.904-5.743-3.904h-7.712c-2.535 0-4.812 1.548-5.743 3.904l-2.708 6.849c-0.478 1.209-0.243 2.583 0.608 3.566"></path>
</svg>
