<svg xmlns="http://www.w3.org/2000/svg" width="86" height="39" fill="none">
  <g fill="#fff" clip-path="url(#a)">
    <path d="M31.808 36.942A11.968 11.968 0 0 1 25.056 39a12.224 12.224 0 0 1-8.243-3.136c-.176-.156 0-.364.182-.247a16.438 16.438 0 0 0 14.546.903c.312-.13.566.201.267.422Z"/>
    <path d="M32.57 36.078c-.234-.299-1.544-.143-2.137-.071-.176 0-.202-.13-.046-.247 1.05-.727 2.763-.52 2.959-.273.195.247-.052 1.948-1.03 2.773-.15.123-.293.058-.228-.104.221-.552.71-1.78.482-2.078Zm-2.092-5.48v-.715a.176.176 0 0 1 .183-.181h3.18a.177.177 0 0 1 .17.11.176.176 0 0 1 .012.071v.61c0 .105-.084.234-.24.449l-1.656 2.357a3.515 3.515 0 0 1 1.825.39.324.324 0 0 1 .17.272v.76c0 .104-.118.227-.236.162a3.685 3.685 0 0 0-3.375 0c-.11.059-.228-.058-.228-.162v-.701a.84.84 0 0 1 .117-.487l1.929-2.76h-1.668a.176.176 0 0 1-.183-.175Zm6.321.032c-.716 0-.762.974-.762 1.578 0 .604 0 1.903.756 1.903s.788-1.046.788-1.682a4.453 4.453 0 0 0-.15-1.299.604.604 0 0 0-.651-.48l.02-.02Zm0-1.02c1.44 0 2.223 1.24 2.223 2.806 0 1.565-.86 2.72-2.223 2.72-1.362 0-2.19-1.233-2.19-2.772 0-1.54.783-2.753 2.19-2.753Zm-7.891 5.41a.215.215 0 0 1-.228 0 2.596 2.596 0 0 1-.56-.65 1.909 1.909 0 0 1-1.604.708 1.388 1.388 0 0 1-1.077-.422 1.376 1.376 0 0 1-.376-1.09 1.651 1.651 0 0 1 1.036-1.585 6.701 6.701 0 0 1 1.831-.332 1.741 1.741 0 0 0-.117-.83.697.697 0 0 0-.547-.254.751.751 0 0 0-.782.572c0 .11-.098.194-.183.188l-.932-.072a.177.177 0 0 1-.143-.137.175.175 0 0 1 0-.07c.215-1.137 1.251-1.48 2.176-1.48.531-.02 1.051.15 1.467.48.469.441.423 1.032.423 1.668v1.513c.003.336.136.657.372.897a.182.182 0 0 1 0 .253l-.75.65-.006-.007Zm-.978-2.364c.035.354-.028.711-.182 1.032a.793.793 0 0 1-.652.442c-.378 0-.593-.286-.593-.708 0-.824.743-.974 1.447-.974v.208h-.02ZM16.161 35.02a.215.215 0 0 1-.228 0 2.599 2.599 0 0 1-.56-.65 1.954 1.954 0 0 1-1.603.708 1.386 1.386 0 0 1-1.358-.914 1.372 1.372 0 0 1-.076-.573 1.645 1.645 0 0 1 1.036-1.584 6.701 6.701 0 0 1 1.831-.331 1.69 1.69 0 0 0-.123-.832.651.651 0 0 0-.541-.253.745.745 0 0 0-.782.572c0 .11-.098.194-.183.188l-.932-.098a.177.177 0 0 1-.143-.137.175.175 0 0 1 0-.07c.215-1.137 1.251-1.48 2.176-1.48.53-.021 1.048.15 1.46.48.476.441.43 1.032.43 1.668v1.513c-.003.33.115.649.333.897a.175.175 0 0 1 0 .253l-.75.65.013-.007Zm-.977-2.364c.035.354-.028.711-.183 1.032a.8.8 0 0 1-.651.442c-.372 0-.587-.286-.587-.708 0-.824.743-.974 1.447-.974v.208h-.026Zm3.819-.435c0-.578 0-1.37.651-1.37.652 0 .593.812.593 1.37v2.636a.175.175 0 0 0 .17.176h.97a.181.181 0 0 0 .19-.176v-2.636c-.02-.321.01-.643.09-.955a.65.65 0 0 1 .58-.409.51.51 0 0 1 .574.429c.023.311.023.624 0 .935v2.636a.182.182 0 0 0 .176.176h.971a.181.181 0 0 0 .19-.176v-3.143a2.589 2.589 0 0 0-.248-1.558 1.374 1.374 0 0 0-1.121-.545 1.391 1.391 0 0 0-1.35.922 1.3 1.3 0 0 0-1.257-.922 1.307 1.307 0 0 0-1.303.922v-.65a.182.182 0 0 0-.183-.175h-.84a.176.176 0 0 0-.183.175v4.955a.176.176 0 0 0 .183.182h.997a.175.175 0 0 0 .176-.182V32.24l-.026-.02Zm22.071 2.63a.176.176 0 0 1-.182.182h-.971a.183.183 0 0 1-.183-.182v-4.955a.182.182 0 0 1 .183-.175h.9a.177.177 0 0 1 .182.136v.76a1.299 1.299 0 0 1 1.303-1.006 1.307 1.307 0 0 1 1.134.59 3.14 3.14 0 0 1 .254 1.546v3.13a.175.175 0 0 1-.183.156h-.938a.176.176 0 0 1-.17-.156V31.87c0-1.006-.39-1.032-.612-1.032a.653.653 0 0 0-.56.39c-.12.3-.174.624-.157.947v2.676ZM3.213 35.02l-.079-.507a2.556 2.556 0 0 1-.775.46 2.308 2.308 0 0 1-.84.17 1.523 1.523 0 0 1-1.108-.396 1.364 1.364 0 0 1-.418-1.052 1.405 1.405 0 0 1 .509-1.137c.39-.296.872-.446 1.362-.422.416.006.83.063 1.231.17v-.65a.944.944 0 0 0-.24-.74 1.208 1.208 0 0 0-.815-.215 5.339 5.339 0 0 0-1.714.305v-.675c.27-.137.56-.233.86-.286.336-.07.68-.105 1.023-.104.486-.04.97.096 1.362.384a1.474 1.474 0 0 1 .443 1.168v3.526h-.801Zm-1.467-.605a2.305 2.305 0 0 0 1.35-.5v-.987a4.279 4.279 0 0 0-1.037-.13c-.73 0-1.101.286-1.101.845a.757.757 0 0 0 .208.571.801.801 0 0 0 .587.201h-.007Zm7.058.604v-3.298c.022-.271-.054-.54-.215-.76a.814.814 0 0 0-.652-.24c-.542.008-1.07.18-1.512.493v3.805h-.97v-4.935h.807l.098.546a3.22 3.22 0 0 1 1.955-.689 1.445 1.445 0 0 1 1.082.377 1.468 1.468 0 0 1 .371 1.104v3.623l-.964-.026Zm41.205-.188c-.405.2-.852.3-1.304.292a2.307 2.307 0 0 1-1.76-.65 3.239 3.239 0 0 1 0-3.81 2.32 2.32 0 0 1 1.78-.65c.426-.003.847.09 1.231.273v.688a3.634 3.634 0 0 0-1.081-.201 1.491 1.491 0 0 0-1.18.415c-.27.377-.398.837-.358 1.299v.123c-.038.463.092.923.365 1.299a1.456 1.456 0 0 0 1.153.416c.392-.007.781-.073 1.154-.195v.701Zm3.036.331a2.23 2.23 0 0 1-1.74-.688 3.24 3.24 0 0 1 0-3.844 2.534 2.534 0 0 1 3.474 0 3.24 3.24 0 0 1 0 3.844 2.209 2.209 0 0 1-1.734.688Zm0-.779c.913 0 1.375-.61 1.375-1.838 0-1.227-.462-1.824-1.375-1.824-.912 0-1.375.604-1.375 1.824 0 1.221.456 1.838 1.375 1.838Zm9.873.636v-3.35a1.146 1.146 0 0 0-.182-.715.704.704 0 0 0-.587-.233c-.51.009-1.006.16-1.434.435.004.05.004.1 0 .15v3.713h-.964v-3.35a1.185 1.185 0 0 0-.182-.715.704.704 0 0 0-.587-.233 2.653 2.653 0 0 0-1.427.428v3.896h-.965V30.11h.808l.098.5a3.266 3.266 0 0 1 1.825-.65 1.229 1.229 0 0 1 1.238.67 3.266 3.266 0 0 1 1.955-.689 1.36 1.36 0 0 1 1.036.377c.253.31.372.707.333 1.104v3.623l-.965-.026Zm2.392 2v-6.935h.808l.091.507a2.43 2.43 0 0 1 1.649-.65 1.811 1.811 0 0 1 1.492.65c.39.54.584 1.198.547 1.863a2.973 2.973 0 0 1-.58 1.949 1.856 1.856 0 0 1-1.531.72 2.168 2.168 0 0 1-1.512-.571v2.467h-.964Zm2.274-6.298a2.188 2.188 0 0 0-1.303.448v2.707c.37.295.829.46 1.303.468.9 0 1.342-.604 1.342-1.805a2.285 2.285 0 0 0-.325-1.37 1.148 1.148 0 0 0-1.017-.448Zm6.412 4.298-.078-.506a2.557 2.557 0 0 1-.775.46c-.27.11-.557.166-.847.17a1.537 1.537 0 0 1-1.108-.396 1.384 1.384 0 0 1-.41-1.052 1.405 1.405 0 0 1 .5-1.137 2.09 2.09 0 0 1 1.37-.422c.415.006.829.063 1.231.17v-.65a.971.971 0 0 0-.241-.74 1.208 1.208 0 0 0-.815-.215 5.345 5.345 0 0 0-1.72.305v-.675c.271-.137.56-.233.86-.286.337-.07.68-.104 1.023-.104.488-.038.973.098 1.369.384a1.473 1.473 0 0 1 .436 1.168v3.526h-.795Zm-1.466-.604a2.305 2.305 0 0 0 1.35-.5v-.987a4.28 4.28 0 0 0-1.037-.13c-.737 0-1.101.286-1.101.845a.756.756 0 0 0 .202.571.823.823 0 0 0 .586.201Zm7.045.604v-3.298c.02-.27-.053-.538-.209-.76a.814.814 0 0 0-.652-.24c-.542.008-1.07.18-1.511.493v3.805h-.965v-4.935h.808l.098.546a3.214 3.214 0 0 1 1.955-.689 1.459 1.459 0 0 1 1.088.377c.26.297.39.685.365 1.078v3.623h-.977Zm6.399-4.935-2.255 5.799c-.119.367-.33.698-.612.961a1.378 1.378 0 0 1-.906.292 2.085 2.085 0 0 1-.756-.136v-.688c.181.045.367.067.554.065a.843.843 0 0 0 .573-.182c.176-.183.304-.406.372-.65l.189-.493-1.994-4.98h1.036l1.427 4.038 1.375-4.039h.997v.013ZM19.367 10.143H2.81v-.091c.058-.58.194-1.15.404-1.695A9.098 9.098 0 0 1 7.168 3.5a7.842 7.842 0 0 1 4.119-1.007 8.348 8.348 0 0 1 3.16.604 8.097 8.097 0 0 1 2.574 1.637 7.792 7.792 0 0 1 1.714 2.39 6.81 6.81 0 0 1 .652 2.921l-.02.098ZM11.437 0C9.857-.021 8.29.286 6.836.902a11.242 11.242 0 0 0-3.623 2.526A11.41 11.41 0 0 0 .834 7.201 13.153 13.153 0 0 0 0 11.941c-.02 1.66.258 3.31.821 4.87a11.03 11.03 0 0 0 2.346 3.8 10.638 10.638 0 0 0 3.662 2.486c1.511.61 3.128.912 4.758.89 1.936.02 3.854-.366 5.63-1.136a10.058 10.058 0 0 0 4.242-3.676l-2.052-1.72a8.116 8.116 0 0 1-3.259 2.928 9.804 9.804 0 0 1-4.483 1.104 8.497 8.497 0 0 1-4.366-1.007A8.858 8.858 0 0 1 4.6 18.065a8.605 8.605 0 0 1-1.388-2.877 10.11 10.11 0 0 1-.378-2.435v-.09h19.341v-2.02a11.401 11.401 0 0 0-.717-3.896 10.382 10.382 0 0 0-2.052-3.429A10.242 10.242 0 0 0 16.07.902a11.145 11.145 0 0 0-4.633-.909V0Zm33.482 10.143H28.367v-.091c.059-.58.194-1.15.404-1.695a9.166 9.166 0 0 1 1.362-2.539 9.027 9.027 0 0 1 2.607-2.312A7.796 7.796 0 0 1 36.858 2.5c1.08-.006 2.152.2 3.154.604A8.027 8.027 0 0 1 42.62 4.74a7.726 7.726 0 0 1 1.648 2.39c.429.915.651 1.912.652 2.922v.09ZM36.995 0a11.439 11.439 0 0 0-4.607.902 11.216 11.216 0 0 0-3.61 2.52 11.306 11.306 0 0 0-2.38 3.773 13.017 13.017 0 0 0-.84 4.746 13.99 13.99 0 0 0 .815 4.87 11.13 11.13 0 0 0 2.352 3.8 10.637 10.637 0 0 0 3.663 2.486c1.51.61 3.127.912 4.757.89a13.78 13.78 0 0 0 5.63-1.136 10.038 10.038 0 0 0 4.23-3.676l-2.053-1.72a8.058 8.058 0 0 1-3.291 2.928 9.804 9.804 0 0 1-4.484 1.104 8.497 8.497 0 0 1-4.366-1.007 8.86 8.86 0 0 1-2.698-2.415 8.48 8.48 0 0 1-1.368-2.877 10.106 10.106 0 0 1-.378-2.435v-.09h19.367v-2.02a11.56 11.56 0 0 0-.69-3.896 10.382 10.382 0 0 0-2.053-3.429A10.307 10.307 0 0 0 41.66.902a11.19 11.19 0 0 0-4.633-.909L36.995 0Zm36.232 21.487a9.493 9.493 0 0 1-3.831-.753 8.962 8.962 0 0 1-2.926-2.04 8.67 8.67 0 0 1-1.838-3.012 11.08 11.08 0 0 1 0-7.377 8.76 8.76 0 0 1 1.838-3.02 8.949 8.949 0 0 1 2.926-2.032 10.121 10.121 0 0 1 7.663 0 8.63 8.63 0 0 1 2.92 2.025 8.59 8.59 0 0 1 1.85 3.027 11.08 11.08 0 0 1 0 7.377 8.72 8.72 0 0 1-1.844 3.013 8.895 8.895 0 0 1-2.926 2.039 9.471 9.471 0 0 1-3.832.753Zm0-21.487c-1.659-.01-3.305.296-4.848.902-1.432.554-2.73 1.401-3.812 2.487a11.527 11.527 0 0 0-2.476 3.8c-.601 1.53-.9 3.161-.88 4.804a12.74 12.74 0 0 0 .892 4.818 11.527 11.527 0 0 0 2.477 3.8 11.135 11.135 0 0 0 3.799 2.486c1.546.603 3.194.905 4.855.89a12.865 12.865 0 0 0 4.835-.89 11.193 11.193 0 0 0 3.814-2.488 11.146 11.146 0 0 0 2.5-3.798 13.448 13.448 0 0 0 0-9.636 11.393 11.393 0 0 0-2.501-3.799 11.324 11.324 0 0 0-3.82-2.474 12.865 12.865 0 0 0-4.835-.89V0ZM51.09 23.39h2.81V10.948a10.962 10.962 0 0 1 .449-3.188c.285-.95.759-1.834 1.394-2.598a6.352 6.352 0 0 1 2.379-1.74 8.367 8.367 0 0 1 3.317-.65V.176C58.18.24 55.606 1.24 53.827 3.136c-2.926 3.11-2.737 7.63-2.737 7.676V23.39Z"/>
  </g>
  <defs>
    <clipPath id="a">
      <path fill="#fff" d="M0 0h86v39H0z"/>
    </clipPath>
  </defs>
</svg>
